{
    "asset" : {
        "generator" : "Khronos glTF Blender I/O v1.8.19",
        "version" : "2.0"
    },
    "scene" : 0,
    "scenes" : [
        {
            "name" : "Scene",
            "nodes" : [
                0
            ]
        }
    ],
    "nodes" : [
        {
            "mesh" : 0,
            "name" : "1",
            "rotation" : [
                0.7071068286895752,
                0,
                0,
                0.7071068286895752
            ],
            "scale" : [
                2.02355694770813,
                1,
                1.5010861158370972
            ],
            "translation" : [
                -0.11999998241662979,
                0,
                0
            ]
        }
    ],
    "materials" : [
        {
            "doubleSided" : true,
            "name" : "Material.001",
            "pbrMetallicRoughness" : {
                "baseColorFactor" : [
                    0.024157550185918808,
                    0.08650042861700058,
                    0.02217390015721321,
                    1
                ],
                "metallicFactor" : 0,
                "roughnessFactor" : 0.4000000059604645
            }
        }
    ],
    "meshes" : [
        {
            "name" : "Text",
            "primitives" : [
                {
                    "attributes" : {
                        "POSITION" : 0,
                        "NORMAL" : 1,
                        "TEXCOORD_0" : 2
                    },
                    "indices" : 3,
                    "material" : 0
                }
            ]
        }
    ],
    "accessors" : [
        {
            "bufferView" : 0,
            "componentType" : 5126,
            "count" : 878,
            "max" : [
                0.2312553972005844,
                0.05000000447034836,
                0
            ],
            "min" : [
                0.06521114706993103,
                -0.05000000447034836,
                -0.3947141766548157
            ],
            "type" : "VEC3"
        },
        {
            "bufferView" : 1,
            "componentType" : 5126,
            "count" : 878,
            "type" : "VEC3"
        },
        {
            "bufferView" : 2,
            "componentType" : 5126,
            "count" : 878,
            "type" : "VEC2"
        },
        {
            "bufferView" : 3,
            "componentType" : 5123,
            "count" : 1524,
            "type" : "SCALAR"
        }
    ],
    "bufferViews" : [
        {
            "buffer" : 0,
            "byteLength" : 10536,
            "byteOffset" : 0
        },
        {
            "buffer" : 0,
            "byteLength" : 10536,
            "byteOffset" : 10536
        },
        {
            "buffer" : 0,
            "byteLength" : 7024,
            "byteOffset" : 21072
        },
        {
            "buffer" : 0,
            "byteLength" : 3048,
            "byteOffset" : 28096
        }
    ],
    "buffers" : [
        {
            "byteLength" : 31144,
            "uri" : "data:application/octet-stream;base64,"
        }
    ]
}
