{
    "asset" : {
        "generator" : "Khronos glTF Blender I/O v1.8.19",
        "version" : "2.0"
    },
    "scene" : 0,
    "scenes" : [
        {
            "name" : "Scene",
            "nodes" : [
                0
            ]
        }
    ],
    "nodes" : [
        {
            "mesh" : 0,
            "name" : "0",
            "rotation" : [
                0.7071068286895752,
                0,
                0,
                0.7071068286895752
            ],
            "scale" : [
                1.1735728979110718,
                1,
                1.4081469774246216
            ],
            "translation" : [
                -0.029999999329447746,
                0,
                -0.04999999701976776
            ]
        }
    ],
    "materials" : [
        {
            "doubleSided" : true,
            "name" : "Material.002",
            "pbrMetallicRoughness" : {
                "baseColorFactor" : [
                    0.024157550185918808,
                    0.08650042861700058,
                    0.02217390015721321,
                    1
                ],
                "metallicFactor" : 0,
                "roughnessFactor" : 0.4000000059604645
            }
        }
    ],
    "meshes" : [
        {
            "name" : "Text.001",
            "primitives" : [
                {
                    "attributes" : {
                        "POSITION" : 0,
                        "NORMAL" : 1,
                        "TEXCOORD_0" : 2
                    },
                    "indices" : 3,
                    "material" : 0
                }
            ]
        }
    ],
    "accessors" : [
        {
            "bufferView" : 0,
            "componentType" : 5126,
            "count" : 1274,
            "max" : [
                0.2814748287200928,
                0.05000000447034836,
                0.015467623248696327
            ],
            "min" : [
                -0.004830369725823402,
                -0.05000000447034836,
                -0.405298113822937
            ],
            "type" : "VEC3"
        },
        {
            "bufferView" : 1,
            "componentType" : 5126,
            "count" : 1274,
            "type" : "VEC3"
        },
        {
            "bufferView" : 2,
            "componentType" : 5126,
            "count" : 1274,
            "type" : "VEC2"
        },
        {
            "bufferView" : 3,
            "componentType" : 5123,
            "count" : 2304,
            "type" : "SCALAR"
        }
    ],
    "bufferViews" : [
        {
            "buffer" : 0,
            "byteLength" : 15288,
            "byteOffset" : 0
        },
        {
            "buffer" : 0,
            "byteLength" : 15288,
            "byteOffset" : 15288
        },
        {
            "buffer" : 0,
            "byteLength" : 10192,
            "byteOffset" : 30576
        },
        {
            "buffer" : 0,
            "byteLength" : 4608,
            "byteOffset" : 40768
        }
    ],
    "buffers" : [
        {
            "byteLength" : 45376,
            "uri" : "data:application/octet-stream;base64,"
        }
    ]
}
